<?xml version="1.0" encoding="UTF-8" standalone="no"?>
<!DOCTYPE svg PUBLIC "-//W3C//DTD SVG 1.0//EN" "http://www.w3.org/TR/2001/REC-SVG-20010904/DTD/svg10.dtd">
<!-- Generated by Microsoft Visio 11.0, SVG Export, v1.0 Logo.svg Page-1 -->
<svg xmlns="http://www.w3.org/2000/svg" xmlns:xlink="http://www.w3.org/1999/xlink" xmlns:ev="http://www.w3.org/2001/xml-events"
		xmlns:v="http://schemas.microsoft.com/visio/2003/SVGExtensions/" width="0.835988in" height="0.835988in"
		viewBox="0 0 60.1912 60.1912" xml:space="preserve" color-interpolation-filters="sRGB" class="st5">
	<v:documentProperties v:langID="1033" v:metric="true" v:viewMarkup="false"/>

	<style type="text/css">
	<![CDATA[
		.st1 {fill:#000000;stroke:none;stroke-linecap:round;stroke-linejoin:round;stroke-width:0.24}
		.st2 {fill:none;stroke:#000000;stroke-linecap:round;stroke-linejoin:round;stroke-width:3}
		.st3 {stroke:#000000;stroke-linecap:round;stroke-linejoin:round;stroke-width:3}
		.st4 {fill:none;stroke:#000000;stroke-linecap:round;stroke-linejoin:round;stroke-width:6}
		.st5 {fill:none;fill-rule:evenodd;font-size:12px;overflow:visible;stroke-linecap:square;stroke-miterlimit:3}
	]]>
	</style>

	<g v:mID="0" v:index="1" v:groupContext="foregroundPage">
		<title>Page-1</title>
		<v:pageProperties v:drawingScale="0.0393701" v:pageScale="0.0393701" v:drawingUnits="24" v:shadowOffsetX="8.50394"
				v:shadowOffsetY="-8.50394"/>
		<g id="group8-1" transform="translate(6,-6)" v:mID="8" v:groupContext="group">
			<title>Sheet.8</title>
			<g id="shape1-2" v:mID="1" v:groupContext="shape" transform="translate(23.3967,-33.0378)">
				<title>Sheet.1</title>
				<path d="M2.4 60.19 A2.39964 2.39964 -180 0 0 4.8 57.79 A2.39964 2.39964 -180 1 0 -0 57.79 A2.39964 2.39964 -180
							 0 0 2.4 60.19 Z" class="st1"/>
			</g>
			<g id="group2-4" transform="translate(14.5799,-9.61672)" v:mID="2" v:groupContext="group">
				<title>Sheet.2</title>
				<g id="shape3-5" v:mID="3" v:groupContext="shape" transform="translate(1.83162,-16.5354)">
					<title>Circle</title>
					<v:userDefs>
						<v:ud v:nameU="visVersion" v:val="VT0(14):26"/>
					</v:userDefs>
					<path d="M0 52.56 A7.63174 7.63174 0 0 1 15.26 52.56 A7.63174 7.63174 0 1 1 0 52.56 Z" class="st2"/>
				</g>
				<g id="shape4-7" v:mID="4" v:groupContext="shape" transform="translate(69.6545,43.6557) rotate(90)">
					<title>Sheet.4</title>
					<path d="M0 60.19 L8.6 60.19" class="st3"/>
				</g>
				<g id="shape5-10" v:mID="5" v:groupContext="shape" transform="translate(0.17444,0)">
					<title>Sheet.5</title>
					<path d="M-0 60.19 A24.5361 13.1517 78.65 0 1 18.86 60.19" class="st3"/>
				</g>
				<g id="shape6-13" v:mID="6" v:groupContext="shape" transform="translate(-16.1857,-4.86958) rotate(-15.5991)">
					<title>Sheet.6</title>
					<path d="M-0 60.19 A13.3667 8.59602 17.12 0 1 17.84 60.19" class="st3"/>
				</g>
			</g>
			<g id="shape7-16" v:mID="7" v:groupContext="shape">
				<title>Circle.87</title>
				<v:userDefs>
					<v:ud v:nameU="visVersion" v:val="VT0(14):26"/>
				</v:userDefs>
				<path d="M0 36.1 A24.0956 24.0956 0 1 1 48.19 36.1 A24.0956 24.0956 0 1 1 -0 36.1 Z" class="st4"/>
			</g>
		</g>
	</g>
</svg>
