<?xml version="1.0" encoding="UTF-8" standalone="no"?>
<!DOCTYPE svg PUBLIC "-//W3C//DTD SVG 1.0//EN" "http://www.w3.org/TR/2001/REC-SVG-20010904/DTD/svg10.dtd">
<!-- Generated by Microsoft Visio 11.0, SVG Export, v1.0 viewperception.svg Page-1 -->
<svg xmlns="http://www.w3.org/2000/svg" xmlns:xlink="http://www.w3.org/1999/xlink" xmlns:ev="http://www.w3.org/2001/xml-events"
		xmlns:v="http://schemas.microsoft.com/visio/2003/SVGExtensions/" width="3.50275in" height="1.01194in"
		viewBox="0 0 252.198 72.8597" xml:space="preserve" color-interpolation-filters="sRGB" class="st8">
	<v:documentProperties v:langID="1033" v:metric="true" v:viewMarkup="false"/>

	<style type="text/css">
	<![CDATA[
		.st1 {marker-end:url(#mrkr6-6);stroke:#000000;stroke-dasharray:1.5,3;stroke-linecap:round;stroke-linejoin:round;stroke-width:1.5}
		.st2 {fill:#000000;fill-opacity:1;stroke:#000000;stroke-opacity:1;stroke-width:0.45454545454545}
		.st3 {stroke:#000000;stroke-linecap:round;stroke-linejoin:round;stroke-width:3}
		.st4 {fill:#ffffff;stroke:#000000;stroke-linecap:round;stroke-linejoin:round;stroke-width:3}
		.st5 {fill:#000000;stroke:none;stroke-linecap:round;stroke-linejoin:round;stroke-width:0.24}
		.st6 {fill:#ffffff;stroke:#000000;stroke-linecap:round;stroke-linejoin:round;stroke-width:0.24}
		.st7 {fill:#000000;font-family:Calibri;font-size:0.666664em}
		.st8 {fill:none;fill-rule:evenodd;font-size:12px;overflow:visible;stroke-linecap:square;stroke-miterlimit:3}
	]]>
	</style>

	<defs id="Markers">
		<g id="lend6">
			<path d="M 2 1 L 0 0 L 2.01237 -1.00641 C 2.32921 -0.372874 2.32921 0.37287 2.01238 1.0064 " style="stroke:none"/>
		</g>
		<marker id="mrkr6-6" class="st2" v:arrowType="6" v:arrowSize="1" v:setback="4.95" refX="-4.95" orient="auto"
				markerUnits="strokeWidth" overflow="visible">
			<use xlink:href="#lend6" transform="scale(-2.2,-2.2) "/>
		</marker>
	</defs>
	<g v:mID="0" v:index="1" v:groupContext="foregroundPage">
		<title>Page-1</title>
		<v:pageProperties v:drawingScale="0.0393701" v:pageScale="0.0393701" v:drawingUnits="24" v:shadowOffsetX="8.50394"
				v:shadowOffsetY="-8.50394"/>
		<g id="shape10-1" v:mID="10" v:groupContext="shape" transform="translate(5.30144,-35.8672) rotate(-7.12502)">
			<title>Sheet.10</title>
			<path d="M0 72.86 L221.11 72.86" class="st1"/>
		</g>
		<g id="shape12-7" v:mID="12" v:groupContext="shape" transform="translate(23.3757,-35.8672) rotate(7.12502)">
			<title>Sheet.12</title>
			<path d="M0 72.86 L221.11 72.86" class="st1"/>
		</g>
		<g id="shape9-12" v:mID="9" v:groupContext="shape" transform="translate(-2.14223,43.5165) rotate(-90)">
			<title>Sheet.9</title>
			<path d="M0 72.86 L14.13 72.86" class="st3"/>
		</g>
		<g id="shape13-15" v:mID="13" v:groupContext="shape" transform="translate(168.25,64.7763) rotate(-90)">
			<title>Sheet.13</title>
			<path d="M0 72.86 L56.69 72.86" class="st3"/>
		</g>
		<g id="shape14-18" v:mID="14" v:groupContext="shape" transform="translate(69.1164,52.7291) rotate(-90)">
			<title>Sheet.14</title>
			<path d="M0 72.86 L32.25 72.86" class="st3"/>
		</g>
		<g id="group11-21" transform="translate(3,-10.9181)" v:mID="11" v:groupContext="group">
			<title>Sheet.11</title>
			<g id="group3-22" v:mID="3" v:groupContext="group">
				<title>Sheet.3</title>
				<g id="shape4-23" v:mID="4" v:groupContext="shape" transform="translate(1.83162,-16.5354)">
					<title>Circle</title>
					<v:userDefs>
						<v:ud v:nameU="visVersion" v:val="VT0(14):26"/>
					</v:userDefs>
					<path d="M0 65.23 A7.63174 7.63174 0 0 1 15.26 65.23 A7.63174 7.63174 0 1 1 0 65.23 Z" class="st4"/>
				</g>
				<g id="shape5-25" v:mID="5" v:groupContext="shape" transform="translate(82.3231,56.3243) rotate(90)">
					<title>Sheet.5</title>
					<path d="M0 72.86 L8.6 72.86" class="st3"/>
				</g>
				<g id="shape6-28" v:mID="6" v:groupContext="shape" transform="translate(0.17444,1.42109E-014)">
					<title>Sheet.6</title>
					<path d="M-0 72.86 A24.5361 13.1517 78.65 0 1 18.86 72.86" class="st3"/>
				</g>
				<g id="shape7-31" v:mID="7" v:groupContext="shape" transform="translate(-19.5923,-4.40296) rotate(-15.5991)">
					<title>Sheet.7</title>
					<path d="M-0 72.86 A13.3667 8.59602 17.12 0 1 17.84 72.86" class="st3"/>
				</g>
			</g>
			<g id="shape2-34" v:mID="2" v:groupContext="shape" transform="translate(8.81684,-23.4211)">
				<title>Sheet.2</title>
				<path d="M2.4 72.86 A2.39964 2.39964 -180 0 0 4.8 70.46 A2.39964 2.39964 -180 1 0 -0 70.46 A2.39964 2.39964 -180
							 0 0 2.4 72.86 Z" class="st5"/>
			</g>
		</g>
		<g id="shape1-36" v:mID="1" v:groupContext="shape" transform="translate(73.8661,-32.4232)">
			<title>Sheet.1</title>
			<desc>a</desc>
			<v:textBlock v:margins="rect(2,2,2,2)" v:tabSpace="42.5197"/>
			<v:textRect cx="4.00666" cy="68.8531" width="8.02" height="8.01333"/>
			<ellipse cx="4.00666" cy="68.8531" rx="4.00666" ry="4.00666" class="st6"/>
			<text x="2.09" y="71.25" class="st7" v:langID="1033"><v:paragraph v:horizAlign="1"/><v:tabList/>a</text>		</g>
		<g id="shape8-39" v:mID="8" v:groupContext="shape" transform="translate(144.732,-32.4232)">
			<title>Sheet.8</title>
			<desc>b</desc>
			<v:textBlock v:margins="rect(2,2,2,2)" v:tabSpace="42.5197"/>
			<v:textRect cx="4.00666" cy="68.8531" width="8.02" height="8.01333"/>
			<ellipse cx="4.00666" cy="68.8531" rx="4.00666" ry="4.00666" class="st6"/>
			<text x="2" y="71.25" class="st7" v:langID="1033"><v:paragraph v:horizAlign="1"/><v:tabList/>b</text>		</g>
		<g id="shape15-42" v:mID="15" v:groupContext="shape" transform="translate(243.945,-32.4232)">
			<title>Sheet.15</title>
			<desc>c</desc>
			<v:textBlock v:margins="rect(2,2,2,2)" v:tabSpace="42.5197"/>
			<v:textRect cx="4.00666" cy="68.8531" width="8.02" height="8.01333"/>
			<ellipse cx="4.00666" cy="68.8531" rx="4.00666" ry="4.00666" class="st6"/>
			<text x="2.32" y="71.25" class="st7" v:langID="1033"><v:paragraph v:horizAlign="1"/><v:tabList/>c</text>		</g>
	</g>
</svg>
